%TF.GenerationSoftware,KiCad,Pcbnew,9.0.4*%
%TF.CreationDate,2025-11-21T09:49:57+00:00*%
%TF.ProjectId,PyBoardTester,5079426f-6172-4645-9465-737465722e6b,rev?*%
%TF.SameCoordinates,Original*%
%TF.FileFunction,Legend,Bot*%
%TF.FilePolarity,Positive*%
%FSLAX46Y46*%
G04 Gerber Fmt 4.6, Leading zero omitted, Abs format (unit mm)*
G04 Created by KiCad (PCBNEW 9.0.4) date 2025-11-21 09:49:57*
%MOMM*%
%LPD*%
G01*
G04 APERTURE LIST*
%ADD10C,2.000000*%
%ADD11R,1.700000X1.700000*%
%ADD12C,1.700000*%
%TA.AperFunction,Profile*%
%ADD13C,0.500000*%
%TD*%
G04 APERTURE END LIST*
%LPC*%
D10*
%TO.C,TP27*%
X70440681Y-120215689D03*
%TD*%
D11*
%TO.C,J1*%
X81030000Y-85312633D03*
D12*
X81030000Y-87852633D03*
X81030000Y-90392633D03*
X81030000Y-92932633D03*
X81030000Y-95472633D03*
X81030000Y-98012633D03*
X81030000Y-100552633D03*
X81030000Y-103092633D03*
X81030000Y-105632633D03*
X81030000Y-108172633D03*
X81030000Y-110712633D03*
X81030000Y-113252633D03*
X81030000Y-115792633D03*
X81030000Y-118332633D03*
X81030000Y-120872633D03*
X81030000Y-123412633D03*
%TD*%
D10*
%TO.C,TP6*%
X119464000Y-88473966D03*
%TD*%
D11*
%TO.C,J2*%
X108964000Y-85300633D03*
D12*
X108964000Y-87840633D03*
X108964000Y-90380633D03*
X108964000Y-92920633D03*
X108964000Y-95460633D03*
X108964000Y-98000633D03*
X108964000Y-100540633D03*
X108964000Y-103080633D03*
X108964000Y-105620633D03*
X108964000Y-108160633D03*
X108964000Y-110700633D03*
X108964000Y-113240633D03*
X108964000Y-115780633D03*
X108964000Y-118320633D03*
X108964000Y-120860633D03*
X108964000Y-123400633D03*
%TD*%
%LPD*%
D13*
X170000000Y-31000000D02*
X170000000Y-177000000D01*
X22000000Y-179000000D02*
G75*
G02*
X20000000Y-177000000I0J2000000D01*
G01*
X22000000Y-29000000D02*
X168000000Y-29000000D01*
X168000000Y-179000000D02*
X22000000Y-179000000D01*
X168000000Y-29000000D02*
G75*
G02*
X170000000Y-31000000I0J-2000000D01*
G01*
X20000000Y-177000000D02*
X20000000Y-31000000D01*
X170000000Y-177000000D02*
G75*
G02*
X168000000Y-179000000I-2000000J0D01*
G01*
X20000000Y-31000000D02*
G75*
G02*
X22000000Y-29000000I2000000J0D01*
G01*
M02*
