%TF.GenerationSoftware,KiCad,Pcbnew,9.0.4*%
%TF.CreationDate,2025-11-21T09:49:57+00:00*%
%TF.ProjectId,PyBoardTester,5079426f-6172-4645-9465-737465722e6b,rev?*%
%TF.SameCoordinates,Original*%
%TF.FileFunction,Soldermask,Top*%
%TF.FilePolarity,Negative*%
%FSLAX46Y46*%
G04 Gerber Fmt 4.6, Leading zero omitted, Abs format (unit mm)*
G04 Created by KiCad (PCBNEW 9.0.4) date 2025-11-21 09:49:57*
%MOMM*%
%LPD*%
G01*
G04 APERTURE LIST*
G04 Aperture macros list*
%AMRoundRect*
0 Rectangle with rounded corners*
0 $1 Rounding radius*
0 $2 $3 $4 $5 $6 $7 $8 $9 X,Y pos of 4 corners*
0 Add a 4 corners polygon primitive as box body*
4,1,4,$2,$3,$4,$5,$6,$7,$8,$9,$2,$3,0*
0 Add four circle primitives for the rounded corners*
1,1,$1+$1,$2,$3*
1,1,$1+$1,$4,$5*
1,1,$1+$1,$6,$7*
1,1,$1+$1,$8,$9*
0 Add four rect primitives between the rounded corners*
20,1,$1+$1,$2,$3,$4,$5,0*
20,1,$1+$1,$4,$5,$6,$7,0*
20,1,$1+$1,$6,$7,$8,$9,0*
20,1,$1+$1,$8,$9,$2,$3,0*%
G04 Aperture macros list end*
%ADD10RoundRect,0.250000X-1.450000X-0.650000X1.450000X-0.650000X1.450000X0.650000X-1.450000X0.650000X0*%
%ADD11C,2.000000*%
%ADD12R,1.400000X1.600000*%
%ADD13R,1.700000X1.700000*%
%ADD14C,1.700000*%
%TA.AperFunction,Profile*%
%ADD15C,0.500000*%
%TD*%
G04 APERTURE END LIST*
D10*
%TO.C,TP1*%
X70440681Y-82689022D03*
%TD*%
%TO.C,TP11*%
X70440681Y-97122355D03*
%TD*%
%TO.C,TP22*%
X119464000Y-111567300D03*
%TD*%
D11*
%TO.C,TP27*%
X70440681Y-120215689D03*
%TD*%
D10*
%TO.C,TP24*%
X119464000Y-114453966D03*
%TD*%
%TO.C,TP3*%
X70440681Y-85575689D03*
%TD*%
%TO.C,TP32*%
X119464000Y-126000633D03*
%TD*%
%TO.C,TP14*%
X119464000Y-100020633D03*
%TD*%
%TO.C,TP25*%
X70440681Y-117329022D03*
%TD*%
%TO.C,TP17*%
X70440681Y-105782355D03*
%TD*%
%TO.C,TP10*%
X119464000Y-94247300D03*
%TD*%
%TO.C,TP9*%
X70440681Y-94235689D03*
%TD*%
D12*
%TO.C,~{RST}#1*%
X129964000Y-93400633D03*
X129964000Y-86200633D03*
X132964000Y-93400633D03*
X132964000Y-86200633D03*
%TD*%
D10*
%TO.C,TP21*%
X70440681Y-111555689D03*
%TD*%
%TO.C,TP20*%
X119464000Y-108680633D03*
%TD*%
%TO.C,TP26*%
X119464000Y-117340633D03*
%TD*%
%TO.C,TP28*%
X119464000Y-120227300D03*
%TD*%
%TO.C,TP5*%
X70440681Y-88462355D03*
%TD*%
%TO.C,TP7*%
X70440681Y-91349022D03*
%TD*%
%TO.C,TP30*%
X119464000Y-123113966D03*
%TD*%
%TO.C,TP15*%
X70440681Y-102895689D03*
%TD*%
D13*
%TO.C,J1*%
X81030000Y-85312633D03*
D14*
X81030000Y-87852633D03*
X81030000Y-90392633D03*
X81030000Y-92932633D03*
X81030000Y-95472633D03*
X81030000Y-98012633D03*
X81030000Y-100552633D03*
X81030000Y-103092633D03*
X81030000Y-105632633D03*
X81030000Y-108172633D03*
X81030000Y-110712633D03*
X81030000Y-113252633D03*
X81030000Y-115792633D03*
X81030000Y-118332633D03*
X81030000Y-120872633D03*
X81030000Y-123412633D03*
%TD*%
D10*
%TO.C,TP13*%
X70440681Y-100009022D03*
%TD*%
%TO.C,TP12*%
X119464000Y-97133966D03*
%TD*%
%TO.C,TP23*%
X70440681Y-114442355D03*
%TD*%
%TO.C,TP18*%
X119464000Y-105793966D03*
%TD*%
%TO.C,TP16*%
X119464000Y-102907300D03*
%TD*%
%TO.C,TP2*%
X119464000Y-82700633D03*
%TD*%
D12*
%TO.C,~{RST}#2*%
X56914000Y-123050633D03*
X56914000Y-115850633D03*
X59914000Y-123050633D03*
X59914000Y-115850633D03*
%TD*%
D10*
%TO.C,TP8*%
X119464000Y-91360633D03*
%TD*%
D11*
%TO.C,TP6*%
X119464000Y-88473966D03*
%TD*%
D13*
%TO.C,J2*%
X108964000Y-85300633D03*
D14*
X108964000Y-87840633D03*
X108964000Y-90380633D03*
X108964000Y-92920633D03*
X108964000Y-95460633D03*
X108964000Y-98000633D03*
X108964000Y-100540633D03*
X108964000Y-103080633D03*
X108964000Y-105620633D03*
X108964000Y-108160633D03*
X108964000Y-110700633D03*
X108964000Y-113240633D03*
X108964000Y-115780633D03*
X108964000Y-118320633D03*
X108964000Y-120860633D03*
X108964000Y-123400633D03*
%TD*%
D10*
%TO.C,TP19*%
X70440681Y-108669022D03*
%TD*%
%TO.C,TP31*%
X70440681Y-125989022D03*
%TD*%
%TO.C,TP4*%
X119464000Y-85587300D03*
%TD*%
%TO.C,TP29*%
X70440681Y-123102355D03*
%TD*%
D15*
X170000000Y-31000000D02*
X170000000Y-177000000D01*
X22000000Y-179000000D02*
G75*
G02*
X20000000Y-177000000I0J2000000D01*
G01*
X22000000Y-29000000D02*
X168000000Y-29000000D01*
X168000000Y-179000000D02*
X22000000Y-179000000D01*
X168000000Y-29000000D02*
G75*
G02*
X170000000Y-31000000I0J-2000000D01*
G01*
X20000000Y-177000000D02*
X20000000Y-31000000D01*
X170000000Y-177000000D02*
G75*
G02*
X168000000Y-179000000I-2000000J0D01*
G01*
X20000000Y-31000000D02*
G75*
G02*
X22000000Y-29000000I2000000J0D01*
G01*
M02*
