%TF.GenerationSoftware,KiCad,Pcbnew,9.0.4*%
%TF.CreationDate,2025-11-21T09:49:57+00:00*%
%TF.ProjectId,PyBoardTester,5079426f-6172-4645-9465-737465722e6b,rev?*%
%TF.SameCoordinates,Original*%
%TF.FileFunction,Copper,L2,Bot*%
%TF.FilePolarity,Positive*%
%FSLAX46Y46*%
G04 Gerber Fmt 4.6, Leading zero omitted, Abs format (unit mm)*
G04 Created by KiCad (PCBNEW 9.0.4) date 2025-11-21 09:49:57*
%MOMM*%
%LPD*%
G01*
G04 APERTURE LIST*
%TA.AperFunction,ComponentPad*%
%ADD10C,2.000000*%
%TD*%
%TA.AperFunction,ComponentPad*%
%ADD11R,1.700000X1.700000*%
%TD*%
%TA.AperFunction,ComponentPad*%
%ADD12C,1.700000*%
%TD*%
%TA.AperFunction,ViaPad*%
%ADD13C,0.550000*%
%TD*%
%TA.AperFunction,Conductor*%
%ADD14C,0.260000*%
%TD*%
%TA.AperFunction,Profile*%
%ADD15C,0.500000*%
%TD*%
G04 APERTURE END LIST*
D10*
%TO.P,TP27,1,1*%
%TO.N,GND#2*%
X70440681Y-120215689D03*
%TD*%
D11*
%TO.P,J1,1,Pin_1*%
%TO.N,/PC6-Y1*%
X81030000Y-85312633D03*
D12*
%TO.P,J1,2,Pin_2*%
%TO.N,/PC7-Y2*%
X81030000Y-87852633D03*
%TO.P,J1,3,Pin_3*%
%TO.N,/PB12-Y5*%
X81030000Y-90392633D03*
%TO.P,J1,4,Pin_4*%
%TO.N,/PB13-Y6*%
X81030000Y-92932633D03*
%TO.P,J1,5,Pin_5*%
%TO.N,/PB12-Y5*%
X81030000Y-95472633D03*
%TO.P,J1,6,Pin_6*%
%TO.N,/PB13-Y6*%
X81030000Y-98012633D03*
%TO.P,J1,7,Pin_7*%
%TO.N,/PB10-Y9*%
X81030000Y-100552633D03*
%TO.P,J1,8,Pin_8*%
%TO.N,/PB11-Y10*%
X81030000Y-103092633D03*
%TO.P,J1,9,Pin_9*%
%TO.N,/PB0-Y11*%
X81030000Y-105632633D03*
%TO.P,J1,10,Pin_10*%
%TO.N,/PB1-Y12*%
X81030000Y-108172633D03*
%TO.P,J1,11,Pin_11*%
%TO.N,/PC4-X11*%
X81030000Y-110712633D03*
%TO.P,J1,12,Pin_12*%
%TO.N,/PC5-X12*%
X81030000Y-113252633D03*
%TO.P,J1,13,Pin_13*%
%TO.N,/~{RST}#2*%
X81030000Y-115792633D03*
%TO.P,J1,14,Pin_14*%
%TO.N,GND#2*%
X81030000Y-118332633D03*
%TO.P,J1,15,Pin_15*%
%TO.N,+3V3#2*%
X81030000Y-120872633D03*
%TO.P,J1,16,Pin_16*%
%TO.N,V+#2*%
X81030000Y-123412633D03*
%TD*%
D10*
%TO.P,TP6,1,1*%
%TO.N,GND#1*%
X119464000Y-88473966D03*
%TD*%
D11*
%TO.P,J2,1,Pin_1*%
%TO.N,V+#1*%
X108964000Y-85300633D03*
D12*
%TO.P,J2,2,Pin_2*%
%TO.N,+3V3#1*%
X108964000Y-87840633D03*
%TO.P,J2,3,Pin_3*%
%TO.N,GND#1*%
X108964000Y-90380633D03*
%TO.P,J2,4,Pin_4*%
%TO.N,/~{RST}#1*%
X108964000Y-92920633D03*
%TO.P,J2,5,Pin_5*%
%TO.N,/PB1-Y12*%
X108964000Y-95460633D03*
%TO.P,J2,6,Pin_6*%
%TO.N,/PB0-Y11*%
X108964000Y-98000633D03*
%TO.P,J2,7,Pin_7*%
%TO.N,/PB11-Y10*%
X108964000Y-100540633D03*
%TO.P,J2,8,Pin_8*%
%TO.N,/PB10-Y9*%
X108964000Y-103080633D03*
%TO.P,J2,9,Pin_9*%
%TO.N,/PA3-X4*%
X108964000Y-105620633D03*
%TO.P,J2,10,Pin_10*%
%TO.N,/PA2-X3*%
X108964000Y-108160633D03*
%TO.P,J2,11,Pin_11*%
%TO.N,/PA1-X2*%
X108964000Y-110700633D03*
%TO.P,J2,12,Pin_12*%
%TO.N,/PA0-X1*%
X108964000Y-113240633D03*
%TO.P,J2,13,Pin_13*%
%TO.N,/PA3-X4*%
X108964000Y-115780633D03*
%TO.P,J2,14,Pin_14*%
%TO.N,/PA2-X3*%
X108964000Y-118320633D03*
%TO.P,J2,15,Pin_15*%
%TO.N,/PA1-X2*%
X108964000Y-120860633D03*
%TO.P,J2,16,Pin_16*%
%TO.N,/PA0-X1*%
X108964000Y-123400633D03*
%TD*%
D13*
%TO.N,GND#2*%
X56914000Y-120200633D03*
%TO.N,/PA2-X3*%
X103414000Y-108150633D03*
X103414000Y-118300633D03*
%TO.N,/PA0-X1*%
X104914000Y-113250633D03*
%TO.N,/PB0-Y11*%
X87900000Y-98000633D03*
%TO.N,GND#1*%
X132964000Y-88450633D03*
%TO.N,/PB1-Y12*%
X88850000Y-95750633D03*
%TO.N,/PB10-Y9*%
X87200000Y-103080633D03*
%TO.N,/PA1-X2*%
X106264000Y-110700633D03*
%TD*%
D14*
%TO.N,GND#2*%
X56914000Y-120200633D02*
X56964000Y-120200633D01*
X56979056Y-120215689D02*
X70440681Y-120215689D01*
X56964000Y-120200633D02*
X56979056Y-120215689D01*
%TO.N,/PB13-Y6*%
X84214000Y-97500633D02*
X83714000Y-98000633D01*
X83846000Y-92932633D02*
X84214000Y-93300633D01*
X84214000Y-93300633D02*
X84214000Y-97500633D01*
X83714000Y-98000633D02*
X82914000Y-98000633D01*
X81030000Y-92932633D02*
X83846000Y-92932633D01*
X82902000Y-98012633D02*
X81030000Y-98012633D01*
X82914000Y-98000633D02*
X82902000Y-98012633D01*
%TO.N,/PA2-X3*%
X103414000Y-108150633D02*
X103414000Y-117500633D01*
X103414000Y-117500633D02*
X103414000Y-118300633D01*
%TO.N,/PA0-X1*%
X105850633Y-123400633D02*
X108964000Y-123400633D01*
X104914000Y-122464000D02*
X105850633Y-123400633D01*
X104914000Y-113250633D02*
X104914000Y-122464000D01*
%TO.N,/PB0-Y11*%
X87900000Y-98000633D02*
X87900000Y-105150000D01*
X87417367Y-105632633D02*
X81030000Y-105632633D01*
X87900000Y-105150000D02*
X87417367Y-105632633D01*
%TO.N,GND#1*%
X132964000Y-88450633D02*
X132940667Y-88473966D01*
X132940667Y-88473966D02*
X119464000Y-88473966D01*
%TO.N,/PB1-Y12*%
X88850000Y-107500000D02*
X88177367Y-108172633D01*
X88177367Y-108172633D02*
X81030000Y-108172633D01*
X88850000Y-95750633D02*
X88850000Y-107500000D01*
%TO.N,/PB10-Y9*%
X87200000Y-101000000D02*
X86752633Y-100552633D01*
X87200000Y-103080633D02*
X87200000Y-101000000D01*
X86752633Y-100552633D02*
X81030000Y-100552633D01*
%TO.N,/PA1-X2*%
X106264000Y-110700633D02*
X106264000Y-120300633D01*
X106264000Y-120300633D02*
X106824000Y-120860633D01*
X106824000Y-120860633D02*
X108964000Y-120860633D01*
%TD*%
D15*
X170000000Y-31000000D02*
X170000000Y-177000000D01*
X22000000Y-179000000D02*
G75*
G02*
X20000000Y-177000000I0J2000000D01*
G01*
X22000000Y-29000000D02*
X168000000Y-29000000D01*
X168000000Y-179000000D02*
X22000000Y-179000000D01*
X168000000Y-29000000D02*
G75*
G02*
X170000000Y-31000000I0J-2000000D01*
G01*
X20000000Y-177000000D02*
X20000000Y-31000000D01*
X170000000Y-177000000D02*
G75*
G02*
X168000000Y-179000000I-2000000J0D01*
G01*
X20000000Y-31000000D02*
G75*
G02*
X22000000Y-29000000I2000000J0D01*
G01*
M02*
