%TF.GenerationSoftware,KiCad,Pcbnew,9.0.4*%
%TF.CreationDate,2025-11-21T09:51:15+00:00*%
%TF.ProjectId,PyBoardTester,5079426f-6172-4645-9465-737465722e6b,rev?*%
%TF.SameCoordinates,Original*%
%TF.FileFunction,Drillmap*%
%TF.FilePolarity,Positive*%
%FSLAX45Y45*%
G04 Gerber Fmt 4.5, Leading zero omitted, Abs format (unit mm)*
G04 Created by KiCad (PCBNEW 9.0.4) date 2025-11-21 09:51:15*
%MOMM*%
%LPD*%
G01*
G04 APERTURE LIST*
%ADD10C,0.500000*%
%ADD11C,0.200000*%
G04 APERTURE END LIST*
D10*
X17000000Y-3100000D02*
X17000000Y-17700000D01*
X2200000Y-17900000D02*
G75*
G02*
X2000000Y-17700000I0J200000D01*
G01*
X2200000Y-2900000D02*
X16800000Y-2900000D01*
X16800000Y-17900000D02*
X2200000Y-17900000D01*
X16800000Y-2900000D02*
G75*
G02*
X17000000Y-3100000I0J-200000D01*
G01*
X2000000Y-17700000D02*
X2000000Y-3100000D01*
X17000000Y-17700000D02*
G75*
G02*
X16800000Y-17900000I-200000J0D01*
G01*
X2000000Y-3100000D02*
G75*
G02*
X2200000Y-2900000I200000J0D01*
G01*
D11*
X2235777Y-18236484D02*
X2235777Y-18036484D01*
X2235777Y-18036484D02*
X2283396Y-18036484D01*
X2283396Y-18036484D02*
X2311967Y-18046008D01*
X2311967Y-18046008D02*
X2331015Y-18065055D01*
X2331015Y-18065055D02*
X2340539Y-18084103D01*
X2340539Y-18084103D02*
X2350063Y-18122198D01*
X2350063Y-18122198D02*
X2350063Y-18150770D01*
X2350063Y-18150770D02*
X2340539Y-18188865D01*
X2340539Y-18188865D02*
X2331015Y-18207912D01*
X2331015Y-18207912D02*
X2311967Y-18226960D01*
X2311967Y-18226960D02*
X2283396Y-18236484D01*
X2283396Y-18236484D02*
X2235777Y-18236484D01*
X2435777Y-18236484D02*
X2435777Y-18103150D01*
X2435777Y-18141246D02*
X2445301Y-18122198D01*
X2445301Y-18122198D02*
X2454824Y-18112674D01*
X2454824Y-18112674D02*
X2473872Y-18103150D01*
X2473872Y-18103150D02*
X2492920Y-18103150D01*
X2559586Y-18236484D02*
X2559586Y-18103150D01*
X2559586Y-18036484D02*
X2550063Y-18046008D01*
X2550063Y-18046008D02*
X2559586Y-18055531D01*
X2559586Y-18055531D02*
X2569110Y-18046008D01*
X2569110Y-18046008D02*
X2559586Y-18036484D01*
X2559586Y-18036484D02*
X2559586Y-18055531D01*
X2683396Y-18236484D02*
X2664348Y-18226960D01*
X2664348Y-18226960D02*
X2654824Y-18207912D01*
X2654824Y-18207912D02*
X2654824Y-18036484D01*
X2788158Y-18236484D02*
X2769110Y-18226960D01*
X2769110Y-18226960D02*
X2759586Y-18207912D01*
X2759586Y-18207912D02*
X2759586Y-18036484D01*
X3016729Y-18236484D02*
X3016729Y-18036484D01*
X3016729Y-18036484D02*
X3083396Y-18179341D01*
X3083396Y-18179341D02*
X3150062Y-18036484D01*
X3150062Y-18036484D02*
X3150062Y-18236484D01*
X3331015Y-18236484D02*
X3331015Y-18131722D01*
X3331015Y-18131722D02*
X3321491Y-18112674D01*
X3321491Y-18112674D02*
X3302443Y-18103150D01*
X3302443Y-18103150D02*
X3264348Y-18103150D01*
X3264348Y-18103150D02*
X3245301Y-18112674D01*
X3331015Y-18226960D02*
X3311967Y-18236484D01*
X3311967Y-18236484D02*
X3264348Y-18236484D01*
X3264348Y-18236484D02*
X3245301Y-18226960D01*
X3245301Y-18226960D02*
X3235777Y-18207912D01*
X3235777Y-18207912D02*
X3235777Y-18188865D01*
X3235777Y-18188865D02*
X3245301Y-18169817D01*
X3245301Y-18169817D02*
X3264348Y-18160293D01*
X3264348Y-18160293D02*
X3311967Y-18160293D01*
X3311967Y-18160293D02*
X3331015Y-18150770D01*
X3426253Y-18103150D02*
X3426253Y-18303150D01*
X3426253Y-18112674D02*
X3445301Y-18103150D01*
X3445301Y-18103150D02*
X3483396Y-18103150D01*
X3483396Y-18103150D02*
X3502443Y-18112674D01*
X3502443Y-18112674D02*
X3511967Y-18122198D01*
X3511967Y-18122198D02*
X3521491Y-18141246D01*
X3521491Y-18141246D02*
X3521491Y-18198389D01*
X3521491Y-18198389D02*
X3511967Y-18217436D01*
X3511967Y-18217436D02*
X3502443Y-18226960D01*
X3502443Y-18226960D02*
X3483396Y-18236484D01*
X3483396Y-18236484D02*
X3445301Y-18236484D01*
X3445301Y-18236484D02*
X3426253Y-18226960D01*
X3607205Y-18217436D02*
X3616729Y-18226960D01*
X3616729Y-18226960D02*
X3607205Y-18236484D01*
X3607205Y-18236484D02*
X3597682Y-18226960D01*
X3597682Y-18226960D02*
X3607205Y-18217436D01*
X3607205Y-18217436D02*
X3607205Y-18236484D01*
X3607205Y-18112674D02*
X3616729Y-18122198D01*
X3616729Y-18122198D02*
X3607205Y-18131722D01*
X3607205Y-18131722D02*
X3597682Y-18122198D01*
X3597682Y-18122198D02*
X3607205Y-18112674D01*
X3607205Y-18112674D02*
X3607205Y-18131722D01*
M02*
