%TF.GenerationSoftware,KiCad,Pcbnew,9.0.4*%
%TF.CreationDate,2025-11-21T09:51:15+00:00*%
%TF.ProjectId,PyBoardTester,5079426f-6172-4645-9465-737465722e6b,rev?*%
%TF.SameCoordinates,Original*%
%TF.FileFunction,Drillmap*%
%TF.FilePolarity,Positive*%
%FSLAX45Y45*%
G04 Gerber Fmt 4.5, Leading zero omitted, Abs format (unit mm)*
G04 Created by KiCad (PCBNEW 9.0.4) date 2025-11-21 09:51:15*
%MOMM*%
%LPD*%
G01*
G04 APERTURE LIST*
%ADD10C,0.500000*%
%ADD11C,0.200000*%
%ADD12C,0.100000*%
G04 APERTURE END LIST*
D10*
X17000000Y-3100000D02*
X17000000Y-17700000D01*
X2200000Y-17900000D02*
G75*
G02*
X2000000Y-17700000I0J200000D01*
G01*
X2200000Y-2900000D02*
X16800000Y-2900000D01*
X16800000Y-17900000D02*
X2200000Y-17900000D01*
X16800000Y-2900000D02*
G75*
G02*
X17000000Y-3100000I0J-200000D01*
G01*
X2000000Y-17700000D02*
X2000000Y-3100000D01*
X17000000Y-17700000D02*
G75*
G02*
X16800000Y-17900000I-200000J0D01*
G01*
X2000000Y-3100000D02*
G75*
G02*
X2200000Y-2900000I200000J0D01*
G01*
D11*
D12*
X5680400Y-12009063D02*
X5702400Y-12031063D01*
X5702400Y-12009063D02*
X5680400Y-12031063D01*
X8709000Y-10297063D02*
X8731000Y-10319063D01*
X8731000Y-10297063D02*
X8709000Y-10319063D01*
X8779000Y-9789063D02*
X8801000Y-9811063D01*
X8801000Y-9789063D02*
X8779000Y-9811063D01*
X8874000Y-9564063D02*
X8896000Y-9586063D01*
X8896000Y-9564063D02*
X8874000Y-9586063D01*
X10330400Y-10804063D02*
X10352400Y-10826063D01*
X10352400Y-10804063D02*
X10330400Y-10826063D01*
X10330400Y-11819063D02*
X10352400Y-11841063D01*
X10352400Y-11819063D02*
X10330400Y-11841063D01*
X10480400Y-11314063D02*
X10502400Y-11336063D01*
X10502400Y-11314063D02*
X10480400Y-11336063D01*
X10615400Y-11059063D02*
X10637400Y-11081063D01*
X10637400Y-11059063D02*
X10615400Y-11081063D01*
X13285400Y-8834063D02*
X13307400Y-8856063D01*
X13307400Y-8834063D02*
X13285400Y-8856063D01*
X7094068Y-12021569D02*
G75*
G02*
X6994068Y-12021569I-50000J0D01*
G01*
X6994068Y-12021569D02*
G75*
G02*
X7094068Y-12021569I50000J0D01*
G01*
X8153000Y-8531263D02*
G75*
G02*
X8053000Y-8531263I-50000J0D01*
G01*
X8053000Y-8531263D02*
G75*
G02*
X8153000Y-8531263I50000J0D01*
G01*
X8153000Y-8785263D02*
G75*
G02*
X8053000Y-8785263I-50000J0D01*
G01*
X8053000Y-8785263D02*
G75*
G02*
X8153000Y-8785263I50000J0D01*
G01*
X8153000Y-9039263D02*
G75*
G02*
X8053000Y-9039263I-50000J0D01*
G01*
X8053000Y-9039263D02*
G75*
G02*
X8153000Y-9039263I50000J0D01*
G01*
X8153000Y-9293263D02*
G75*
G02*
X8053000Y-9293263I-50000J0D01*
G01*
X8053000Y-9293263D02*
G75*
G02*
X8153000Y-9293263I50000J0D01*
G01*
X8153000Y-9547263D02*
G75*
G02*
X8053000Y-9547263I-50000J0D01*
G01*
X8053000Y-9547263D02*
G75*
G02*
X8153000Y-9547263I50000J0D01*
G01*
X8153000Y-9801263D02*
G75*
G02*
X8053000Y-9801263I-50000J0D01*
G01*
X8053000Y-9801263D02*
G75*
G02*
X8153000Y-9801263I50000J0D01*
G01*
X8153000Y-10055263D02*
G75*
G02*
X8053000Y-10055263I-50000J0D01*
G01*
X8053000Y-10055263D02*
G75*
G02*
X8153000Y-10055263I50000J0D01*
G01*
X8153000Y-10309263D02*
G75*
G02*
X8053000Y-10309263I-50000J0D01*
G01*
X8053000Y-10309263D02*
G75*
G02*
X8153000Y-10309263I50000J0D01*
G01*
X8153000Y-10563263D02*
G75*
G02*
X8053000Y-10563263I-50000J0D01*
G01*
X8053000Y-10563263D02*
G75*
G02*
X8153000Y-10563263I50000J0D01*
G01*
X8153000Y-10817263D02*
G75*
G02*
X8053000Y-10817263I-50000J0D01*
G01*
X8053000Y-10817263D02*
G75*
G02*
X8153000Y-10817263I50000J0D01*
G01*
X8153000Y-11071263D02*
G75*
G02*
X8053000Y-11071263I-50000J0D01*
G01*
X8053000Y-11071263D02*
G75*
G02*
X8153000Y-11071263I50000J0D01*
G01*
X8153000Y-11325263D02*
G75*
G02*
X8053000Y-11325263I-50000J0D01*
G01*
X8053000Y-11325263D02*
G75*
G02*
X8153000Y-11325263I50000J0D01*
G01*
X8153000Y-11579263D02*
G75*
G02*
X8053000Y-11579263I-50000J0D01*
G01*
X8053000Y-11579263D02*
G75*
G02*
X8153000Y-11579263I50000J0D01*
G01*
X8153000Y-11833263D02*
G75*
G02*
X8053000Y-11833263I-50000J0D01*
G01*
X8053000Y-11833263D02*
G75*
G02*
X8153000Y-11833263I50000J0D01*
G01*
X8153000Y-12087263D02*
G75*
G02*
X8053000Y-12087263I-50000J0D01*
G01*
X8053000Y-12087263D02*
G75*
G02*
X8153000Y-12087263I50000J0D01*
G01*
X8153000Y-12341263D02*
G75*
G02*
X8053000Y-12341263I-50000J0D01*
G01*
X8053000Y-12341263D02*
G75*
G02*
X8153000Y-12341263I50000J0D01*
G01*
X10946400Y-8530063D02*
G75*
G02*
X10846400Y-8530063I-50000J0D01*
G01*
X10846400Y-8530063D02*
G75*
G02*
X10946400Y-8530063I50000J0D01*
G01*
X10946400Y-8784063D02*
G75*
G02*
X10846400Y-8784063I-50000J0D01*
G01*
X10846400Y-8784063D02*
G75*
G02*
X10946400Y-8784063I50000J0D01*
G01*
X10946400Y-9038063D02*
G75*
G02*
X10846400Y-9038063I-50000J0D01*
G01*
X10846400Y-9038063D02*
G75*
G02*
X10946400Y-9038063I50000J0D01*
G01*
X10946400Y-9292063D02*
G75*
G02*
X10846400Y-9292063I-50000J0D01*
G01*
X10846400Y-9292063D02*
G75*
G02*
X10946400Y-9292063I50000J0D01*
G01*
X10946400Y-9546063D02*
G75*
G02*
X10846400Y-9546063I-50000J0D01*
G01*
X10846400Y-9546063D02*
G75*
G02*
X10946400Y-9546063I50000J0D01*
G01*
X10946400Y-9800063D02*
G75*
G02*
X10846400Y-9800063I-50000J0D01*
G01*
X10846400Y-9800063D02*
G75*
G02*
X10946400Y-9800063I50000J0D01*
G01*
X10946400Y-10054063D02*
G75*
G02*
X10846400Y-10054063I-50000J0D01*
G01*
X10846400Y-10054063D02*
G75*
G02*
X10946400Y-10054063I50000J0D01*
G01*
X10946400Y-10308063D02*
G75*
G02*
X10846400Y-10308063I-50000J0D01*
G01*
X10846400Y-10308063D02*
G75*
G02*
X10946400Y-10308063I50000J0D01*
G01*
X10946400Y-10562063D02*
G75*
G02*
X10846400Y-10562063I-50000J0D01*
G01*
X10846400Y-10562063D02*
G75*
G02*
X10946400Y-10562063I50000J0D01*
G01*
X10946400Y-10816063D02*
G75*
G02*
X10846400Y-10816063I-50000J0D01*
G01*
X10846400Y-10816063D02*
G75*
G02*
X10946400Y-10816063I50000J0D01*
G01*
X10946400Y-11070063D02*
G75*
G02*
X10846400Y-11070063I-50000J0D01*
G01*
X10846400Y-11070063D02*
G75*
G02*
X10946400Y-11070063I50000J0D01*
G01*
X10946400Y-11324063D02*
G75*
G02*
X10846400Y-11324063I-50000J0D01*
G01*
X10846400Y-11324063D02*
G75*
G02*
X10946400Y-11324063I50000J0D01*
G01*
X10946400Y-11578063D02*
G75*
G02*
X10846400Y-11578063I-50000J0D01*
G01*
X10846400Y-11578063D02*
G75*
G02*
X10946400Y-11578063I50000J0D01*
G01*
X10946400Y-11832063D02*
G75*
G02*
X10846400Y-11832063I-50000J0D01*
G01*
X10846400Y-11832063D02*
G75*
G02*
X10946400Y-11832063I50000J0D01*
G01*
X10946400Y-12086063D02*
G75*
G02*
X10846400Y-12086063I-50000J0D01*
G01*
X10846400Y-12086063D02*
G75*
G02*
X10946400Y-12086063I50000J0D01*
G01*
X10946400Y-12340063D02*
G75*
G02*
X10846400Y-12340063I-50000J0D01*
G01*
X10846400Y-12340063D02*
G75*
G02*
X10946400Y-12340063I50000J0D01*
G01*
X11996400Y-8847397D02*
G75*
G02*
X11896400Y-8847397I-50000J0D01*
G01*
X11896400Y-8847397D02*
G75*
G02*
X11996400Y-8847397I50000J0D01*
G01*
D11*
X2235777Y-18236484D02*
X2235777Y-18036484D01*
X2235777Y-18036484D02*
X2283396Y-18036484D01*
X2283396Y-18036484D02*
X2311967Y-18046008D01*
X2311967Y-18046008D02*
X2331015Y-18065055D01*
X2331015Y-18065055D02*
X2340539Y-18084103D01*
X2340539Y-18084103D02*
X2350063Y-18122198D01*
X2350063Y-18122198D02*
X2350063Y-18150770D01*
X2350063Y-18150770D02*
X2340539Y-18188865D01*
X2340539Y-18188865D02*
X2331015Y-18207912D01*
X2331015Y-18207912D02*
X2311967Y-18226960D01*
X2311967Y-18226960D02*
X2283396Y-18236484D01*
X2283396Y-18236484D02*
X2235777Y-18236484D01*
X2435777Y-18236484D02*
X2435777Y-18103150D01*
X2435777Y-18141246D02*
X2445301Y-18122198D01*
X2445301Y-18122198D02*
X2454824Y-18112674D01*
X2454824Y-18112674D02*
X2473872Y-18103150D01*
X2473872Y-18103150D02*
X2492920Y-18103150D01*
X2559586Y-18236484D02*
X2559586Y-18103150D01*
X2559586Y-18036484D02*
X2550063Y-18046008D01*
X2550063Y-18046008D02*
X2559586Y-18055531D01*
X2559586Y-18055531D02*
X2569110Y-18046008D01*
X2569110Y-18046008D02*
X2559586Y-18036484D01*
X2559586Y-18036484D02*
X2559586Y-18055531D01*
X2683396Y-18236484D02*
X2664348Y-18226960D01*
X2664348Y-18226960D02*
X2654824Y-18207912D01*
X2654824Y-18207912D02*
X2654824Y-18036484D01*
X2788158Y-18236484D02*
X2769110Y-18226960D01*
X2769110Y-18226960D02*
X2759586Y-18207912D01*
X2759586Y-18207912D02*
X2759586Y-18036484D01*
X3016729Y-18236484D02*
X3016729Y-18036484D01*
X3016729Y-18036484D02*
X3083396Y-18179341D01*
X3083396Y-18179341D02*
X3150062Y-18036484D01*
X3150062Y-18036484D02*
X3150062Y-18236484D01*
X3331015Y-18236484D02*
X3331015Y-18131722D01*
X3331015Y-18131722D02*
X3321491Y-18112674D01*
X3321491Y-18112674D02*
X3302443Y-18103150D01*
X3302443Y-18103150D02*
X3264348Y-18103150D01*
X3264348Y-18103150D02*
X3245301Y-18112674D01*
X3331015Y-18226960D02*
X3311967Y-18236484D01*
X3311967Y-18236484D02*
X3264348Y-18236484D01*
X3264348Y-18236484D02*
X3245301Y-18226960D01*
X3245301Y-18226960D02*
X3235777Y-18207912D01*
X3235777Y-18207912D02*
X3235777Y-18188865D01*
X3235777Y-18188865D02*
X3245301Y-18169817D01*
X3245301Y-18169817D02*
X3264348Y-18160293D01*
X3264348Y-18160293D02*
X3311967Y-18160293D01*
X3311967Y-18160293D02*
X3331015Y-18150770D01*
X3426253Y-18103150D02*
X3426253Y-18303150D01*
X3426253Y-18112674D02*
X3445301Y-18103150D01*
X3445301Y-18103150D02*
X3483396Y-18103150D01*
X3483396Y-18103150D02*
X3502443Y-18112674D01*
X3502443Y-18112674D02*
X3511967Y-18122198D01*
X3511967Y-18122198D02*
X3521491Y-18141246D01*
X3521491Y-18141246D02*
X3521491Y-18198389D01*
X3521491Y-18198389D02*
X3511967Y-18217436D01*
X3511967Y-18217436D02*
X3502443Y-18226960D01*
X3502443Y-18226960D02*
X3483396Y-18236484D01*
X3483396Y-18236484D02*
X3445301Y-18236484D01*
X3445301Y-18236484D02*
X3426253Y-18226960D01*
X3607205Y-18217436D02*
X3616729Y-18226960D01*
X3616729Y-18226960D02*
X3607205Y-18236484D01*
X3607205Y-18236484D02*
X3597682Y-18226960D01*
X3597682Y-18226960D02*
X3607205Y-18217436D01*
X3607205Y-18217436D02*
X3607205Y-18236484D01*
X3607205Y-18112674D02*
X3616729Y-18122198D01*
X3616729Y-18122198D02*
X3607205Y-18131722D01*
X3607205Y-18131722D02*
X3597682Y-18122198D01*
X3597682Y-18122198D02*
X3607205Y-18112674D01*
X3607205Y-18112674D02*
X3607205Y-18131722D01*
D12*
X1953000Y-18554000D02*
X1975000Y-18576000D01*
X1975000Y-18554000D02*
X1953000Y-18576000D01*
D11*
X2273872Y-18456484D02*
X2292920Y-18456484D01*
X2292920Y-18456484D02*
X2311967Y-18466008D01*
X2311967Y-18466008D02*
X2321491Y-18475531D01*
X2321491Y-18475531D02*
X2331015Y-18494579D01*
X2331015Y-18494579D02*
X2340539Y-18532674D01*
X2340539Y-18532674D02*
X2340539Y-18580293D01*
X2340539Y-18580293D02*
X2331015Y-18618389D01*
X2331015Y-18618389D02*
X2321491Y-18637436D01*
X2321491Y-18637436D02*
X2311967Y-18646960D01*
X2311967Y-18646960D02*
X2292920Y-18656484D01*
X2292920Y-18656484D02*
X2273872Y-18656484D01*
X2273872Y-18656484D02*
X2254824Y-18646960D01*
X2254824Y-18646960D02*
X2245301Y-18637436D01*
X2245301Y-18637436D02*
X2235777Y-18618389D01*
X2235777Y-18618389D02*
X2226253Y-18580293D01*
X2226253Y-18580293D02*
X2226253Y-18532674D01*
X2226253Y-18532674D02*
X2235777Y-18494579D01*
X2235777Y-18494579D02*
X2245301Y-18475531D01*
X2245301Y-18475531D02*
X2254824Y-18466008D01*
X2254824Y-18466008D02*
X2273872Y-18456484D01*
X2426253Y-18637436D02*
X2435777Y-18646960D01*
X2435777Y-18646960D02*
X2426253Y-18656484D01*
X2426253Y-18656484D02*
X2416729Y-18646960D01*
X2416729Y-18646960D02*
X2426253Y-18637436D01*
X2426253Y-18637436D02*
X2426253Y-18656484D01*
X2511967Y-18475531D02*
X2521491Y-18466008D01*
X2521491Y-18466008D02*
X2540539Y-18456484D01*
X2540539Y-18456484D02*
X2588158Y-18456484D01*
X2588158Y-18456484D02*
X2607205Y-18466008D01*
X2607205Y-18466008D02*
X2616729Y-18475531D01*
X2616729Y-18475531D02*
X2626253Y-18494579D01*
X2626253Y-18494579D02*
X2626253Y-18513627D01*
X2626253Y-18513627D02*
X2616729Y-18542198D01*
X2616729Y-18542198D02*
X2502444Y-18656484D01*
X2502444Y-18656484D02*
X2626253Y-18656484D01*
X2702444Y-18475531D02*
X2711967Y-18466008D01*
X2711967Y-18466008D02*
X2731015Y-18456484D01*
X2731015Y-18456484D02*
X2778634Y-18456484D01*
X2778634Y-18456484D02*
X2797682Y-18466008D01*
X2797682Y-18466008D02*
X2807205Y-18475531D01*
X2807205Y-18475531D02*
X2816729Y-18494579D01*
X2816729Y-18494579D02*
X2816729Y-18513627D01*
X2816729Y-18513627D02*
X2807205Y-18542198D01*
X2807205Y-18542198D02*
X2692920Y-18656484D01*
X2692920Y-18656484D02*
X2816729Y-18656484D01*
X2940539Y-18456484D02*
X2959586Y-18456484D01*
X2959586Y-18456484D02*
X2978634Y-18466008D01*
X2978634Y-18466008D02*
X2988158Y-18475531D01*
X2988158Y-18475531D02*
X2997682Y-18494579D01*
X2997682Y-18494579D02*
X3007205Y-18532674D01*
X3007205Y-18532674D02*
X3007205Y-18580293D01*
X3007205Y-18580293D02*
X2997682Y-18618389D01*
X2997682Y-18618389D02*
X2988158Y-18637436D01*
X2988158Y-18637436D02*
X2978634Y-18646960D01*
X2978634Y-18646960D02*
X2959586Y-18656484D01*
X2959586Y-18656484D02*
X2940539Y-18656484D01*
X2940539Y-18656484D02*
X2921491Y-18646960D01*
X2921491Y-18646960D02*
X2911967Y-18637436D01*
X2911967Y-18637436D02*
X2902443Y-18618389D01*
X2902443Y-18618389D02*
X2892920Y-18580293D01*
X2892920Y-18580293D02*
X2892920Y-18532674D01*
X2892920Y-18532674D02*
X2902443Y-18494579D01*
X2902443Y-18494579D02*
X2911967Y-18475531D01*
X2911967Y-18475531D02*
X2921491Y-18466008D01*
X2921491Y-18466008D02*
X2940539Y-18456484D01*
X3092920Y-18656484D02*
X3092920Y-18523150D01*
X3092920Y-18542198D02*
X3102443Y-18532674D01*
X3102443Y-18532674D02*
X3121491Y-18523150D01*
X3121491Y-18523150D02*
X3150063Y-18523150D01*
X3150063Y-18523150D02*
X3169110Y-18532674D01*
X3169110Y-18532674D02*
X3178634Y-18551722D01*
X3178634Y-18551722D02*
X3178634Y-18656484D01*
X3178634Y-18551722D02*
X3188158Y-18532674D01*
X3188158Y-18532674D02*
X3207205Y-18523150D01*
X3207205Y-18523150D02*
X3235777Y-18523150D01*
X3235777Y-18523150D02*
X3254824Y-18532674D01*
X3254824Y-18532674D02*
X3264348Y-18551722D01*
X3264348Y-18551722D02*
X3264348Y-18656484D01*
X3359586Y-18656484D02*
X3359586Y-18523150D01*
X3359586Y-18542198D02*
X3369110Y-18532674D01*
X3369110Y-18532674D02*
X3388158Y-18523150D01*
X3388158Y-18523150D02*
X3416729Y-18523150D01*
X3416729Y-18523150D02*
X3435777Y-18532674D01*
X3435777Y-18532674D02*
X3445301Y-18551722D01*
X3445301Y-18551722D02*
X3445301Y-18656484D01*
X3445301Y-18551722D02*
X3454824Y-18532674D01*
X3454824Y-18532674D02*
X3473872Y-18523150D01*
X3473872Y-18523150D02*
X3502443Y-18523150D01*
X3502443Y-18523150D02*
X3521491Y-18532674D01*
X3521491Y-18532674D02*
X3531015Y-18551722D01*
X3531015Y-18551722D02*
X3531015Y-18656484D01*
X3921491Y-18446960D02*
X3750063Y-18704103D01*
X4178634Y-18456484D02*
X4197682Y-18456484D01*
X4197682Y-18456484D02*
X4216729Y-18466008D01*
X4216729Y-18466008D02*
X4226253Y-18475531D01*
X4226253Y-18475531D02*
X4235777Y-18494579D01*
X4235777Y-18494579D02*
X4245301Y-18532674D01*
X4245301Y-18532674D02*
X4245301Y-18580293D01*
X4245301Y-18580293D02*
X4235777Y-18618389D01*
X4235777Y-18618389D02*
X4226253Y-18637436D01*
X4226253Y-18637436D02*
X4216729Y-18646960D01*
X4216729Y-18646960D02*
X4197682Y-18656484D01*
X4197682Y-18656484D02*
X4178634Y-18656484D01*
X4178634Y-18656484D02*
X4159586Y-18646960D01*
X4159586Y-18646960D02*
X4150063Y-18637436D01*
X4150063Y-18637436D02*
X4140539Y-18618389D01*
X4140539Y-18618389D02*
X4131015Y-18580293D01*
X4131015Y-18580293D02*
X4131015Y-18532674D01*
X4131015Y-18532674D02*
X4140539Y-18494579D01*
X4140539Y-18494579D02*
X4150063Y-18475531D01*
X4150063Y-18475531D02*
X4159586Y-18466008D01*
X4159586Y-18466008D02*
X4178634Y-18456484D01*
X4331015Y-18637436D02*
X4340539Y-18646960D01*
X4340539Y-18646960D02*
X4331015Y-18656484D01*
X4331015Y-18656484D02*
X4321491Y-18646960D01*
X4321491Y-18646960D02*
X4331015Y-18637436D01*
X4331015Y-18637436D02*
X4331015Y-18656484D01*
X4464348Y-18456484D02*
X4483396Y-18456484D01*
X4483396Y-18456484D02*
X4502444Y-18466008D01*
X4502444Y-18466008D02*
X4511968Y-18475531D01*
X4511968Y-18475531D02*
X4521491Y-18494579D01*
X4521491Y-18494579D02*
X4531015Y-18532674D01*
X4531015Y-18532674D02*
X4531015Y-18580293D01*
X4531015Y-18580293D02*
X4521491Y-18618389D01*
X4521491Y-18618389D02*
X4511968Y-18637436D01*
X4511968Y-18637436D02*
X4502444Y-18646960D01*
X4502444Y-18646960D02*
X4483396Y-18656484D01*
X4483396Y-18656484D02*
X4464348Y-18656484D01*
X4464348Y-18656484D02*
X4445301Y-18646960D01*
X4445301Y-18646960D02*
X4435777Y-18637436D01*
X4435777Y-18637436D02*
X4426253Y-18618389D01*
X4426253Y-18618389D02*
X4416729Y-18580293D01*
X4416729Y-18580293D02*
X4416729Y-18532674D01*
X4416729Y-18532674D02*
X4426253Y-18494579D01*
X4426253Y-18494579D02*
X4435777Y-18475531D01*
X4435777Y-18475531D02*
X4445301Y-18466008D01*
X4445301Y-18466008D02*
X4464348Y-18456484D01*
X4654825Y-18456484D02*
X4673872Y-18456484D01*
X4673872Y-18456484D02*
X4692920Y-18466008D01*
X4692920Y-18466008D02*
X4702444Y-18475531D01*
X4702444Y-18475531D02*
X4711968Y-18494579D01*
X4711968Y-18494579D02*
X4721491Y-18532674D01*
X4721491Y-18532674D02*
X4721491Y-18580293D01*
X4721491Y-18580293D02*
X4711968Y-18618389D01*
X4711968Y-18618389D02*
X4702444Y-18637436D01*
X4702444Y-18637436D02*
X4692920Y-18646960D01*
X4692920Y-18646960D02*
X4673872Y-18656484D01*
X4673872Y-18656484D02*
X4654825Y-18656484D01*
X4654825Y-18656484D02*
X4635777Y-18646960D01*
X4635777Y-18646960D02*
X4626253Y-18637436D01*
X4626253Y-18637436D02*
X4616729Y-18618389D01*
X4616729Y-18618389D02*
X4607206Y-18580293D01*
X4607206Y-18580293D02*
X4607206Y-18532674D01*
X4607206Y-18532674D02*
X4616729Y-18494579D01*
X4616729Y-18494579D02*
X4626253Y-18475531D01*
X4626253Y-18475531D02*
X4635777Y-18466008D01*
X4635777Y-18466008D02*
X4654825Y-18456484D01*
X4835777Y-18542198D02*
X4816729Y-18532674D01*
X4816729Y-18532674D02*
X4807206Y-18523150D01*
X4807206Y-18523150D02*
X4797682Y-18504103D01*
X4797682Y-18504103D02*
X4797682Y-18494579D01*
X4797682Y-18494579D02*
X4807206Y-18475531D01*
X4807206Y-18475531D02*
X4816729Y-18466008D01*
X4816729Y-18466008D02*
X4835777Y-18456484D01*
X4835777Y-18456484D02*
X4873872Y-18456484D01*
X4873872Y-18456484D02*
X4892920Y-18466008D01*
X4892920Y-18466008D02*
X4902444Y-18475531D01*
X4902444Y-18475531D02*
X4911968Y-18494579D01*
X4911968Y-18494579D02*
X4911968Y-18504103D01*
X4911968Y-18504103D02*
X4902444Y-18523150D01*
X4902444Y-18523150D02*
X4892920Y-18532674D01*
X4892920Y-18532674D02*
X4873872Y-18542198D01*
X4873872Y-18542198D02*
X4835777Y-18542198D01*
X4835777Y-18542198D02*
X4816729Y-18551722D01*
X4816729Y-18551722D02*
X4807206Y-18561246D01*
X4807206Y-18561246D02*
X4797682Y-18580293D01*
X4797682Y-18580293D02*
X4797682Y-18618389D01*
X4797682Y-18618389D02*
X4807206Y-18637436D01*
X4807206Y-18637436D02*
X4816729Y-18646960D01*
X4816729Y-18646960D02*
X4835777Y-18656484D01*
X4835777Y-18656484D02*
X4873872Y-18656484D01*
X4873872Y-18656484D02*
X4892920Y-18646960D01*
X4892920Y-18646960D02*
X4902444Y-18637436D01*
X4902444Y-18637436D02*
X4911968Y-18618389D01*
X4911968Y-18618389D02*
X4911968Y-18580293D01*
X4911968Y-18580293D02*
X4902444Y-18561246D01*
X4902444Y-18561246D02*
X4892920Y-18551722D01*
X4892920Y-18551722D02*
X4873872Y-18542198D01*
X4978634Y-18456484D02*
X5111968Y-18456484D01*
X5111968Y-18456484D02*
X5026253Y-18656484D01*
X5178634Y-18456484D02*
X5178634Y-18494579D01*
X5254825Y-18456484D02*
X5254825Y-18494579D01*
X5550063Y-18732674D02*
X5540539Y-18723150D01*
X5540539Y-18723150D02*
X5521491Y-18694579D01*
X5521491Y-18694579D02*
X5511968Y-18675531D01*
X5511968Y-18675531D02*
X5502444Y-18646960D01*
X5502444Y-18646960D02*
X5492920Y-18599341D01*
X5492920Y-18599341D02*
X5492920Y-18561246D01*
X5492920Y-18561246D02*
X5502444Y-18513627D01*
X5502444Y-18513627D02*
X5511968Y-18485055D01*
X5511968Y-18485055D02*
X5521491Y-18466008D01*
X5521491Y-18466008D02*
X5540539Y-18437436D01*
X5540539Y-18437436D02*
X5550063Y-18427912D01*
X5635777Y-18656484D02*
X5673872Y-18656484D01*
X5673872Y-18656484D02*
X5692920Y-18646960D01*
X5692920Y-18646960D02*
X5702444Y-18637436D01*
X5702444Y-18637436D02*
X5721491Y-18608865D01*
X5721491Y-18608865D02*
X5731015Y-18570770D01*
X5731015Y-18570770D02*
X5731015Y-18494579D01*
X5731015Y-18494579D02*
X5721491Y-18475531D01*
X5721491Y-18475531D02*
X5711968Y-18466008D01*
X5711968Y-18466008D02*
X5692920Y-18456484D01*
X5692920Y-18456484D02*
X5654825Y-18456484D01*
X5654825Y-18456484D02*
X5635777Y-18466008D01*
X5635777Y-18466008D02*
X5626253Y-18475531D01*
X5626253Y-18475531D02*
X5616729Y-18494579D01*
X5616729Y-18494579D02*
X5616729Y-18542198D01*
X5616729Y-18542198D02*
X5626253Y-18561246D01*
X5626253Y-18561246D02*
X5635777Y-18570770D01*
X5635777Y-18570770D02*
X5654825Y-18580293D01*
X5654825Y-18580293D02*
X5692920Y-18580293D01*
X5692920Y-18580293D02*
X5711968Y-18570770D01*
X5711968Y-18570770D02*
X5721491Y-18561246D01*
X5721491Y-18561246D02*
X5731015Y-18542198D01*
X5969110Y-18656484D02*
X5969110Y-18456484D01*
X6054825Y-18656484D02*
X6054825Y-18551722D01*
X6054825Y-18551722D02*
X6045301Y-18532674D01*
X6045301Y-18532674D02*
X6026253Y-18523150D01*
X6026253Y-18523150D02*
X5997682Y-18523150D01*
X5997682Y-18523150D02*
X5978634Y-18532674D01*
X5978634Y-18532674D02*
X5969110Y-18542198D01*
X6178634Y-18656484D02*
X6159587Y-18646960D01*
X6159587Y-18646960D02*
X6150063Y-18637436D01*
X6150063Y-18637436D02*
X6140539Y-18618389D01*
X6140539Y-18618389D02*
X6140539Y-18561246D01*
X6140539Y-18561246D02*
X6150063Y-18542198D01*
X6150063Y-18542198D02*
X6159587Y-18532674D01*
X6159587Y-18532674D02*
X6178634Y-18523150D01*
X6178634Y-18523150D02*
X6207206Y-18523150D01*
X6207206Y-18523150D02*
X6226253Y-18532674D01*
X6226253Y-18532674D02*
X6235777Y-18542198D01*
X6235777Y-18542198D02*
X6245301Y-18561246D01*
X6245301Y-18561246D02*
X6245301Y-18618389D01*
X6245301Y-18618389D02*
X6235777Y-18637436D01*
X6235777Y-18637436D02*
X6226253Y-18646960D01*
X6226253Y-18646960D02*
X6207206Y-18656484D01*
X6207206Y-18656484D02*
X6178634Y-18656484D01*
X6359587Y-18656484D02*
X6340539Y-18646960D01*
X6340539Y-18646960D02*
X6331015Y-18627912D01*
X6331015Y-18627912D02*
X6331015Y-18456484D01*
X6511968Y-18646960D02*
X6492920Y-18656484D01*
X6492920Y-18656484D02*
X6454825Y-18656484D01*
X6454825Y-18656484D02*
X6435777Y-18646960D01*
X6435777Y-18646960D02*
X6426253Y-18627912D01*
X6426253Y-18627912D02*
X6426253Y-18551722D01*
X6426253Y-18551722D02*
X6435777Y-18532674D01*
X6435777Y-18532674D02*
X6454825Y-18523150D01*
X6454825Y-18523150D02*
X6492920Y-18523150D01*
X6492920Y-18523150D02*
X6511968Y-18532674D01*
X6511968Y-18532674D02*
X6521491Y-18551722D01*
X6521491Y-18551722D02*
X6521491Y-18570770D01*
X6521491Y-18570770D02*
X6426253Y-18589817D01*
X6597682Y-18646960D02*
X6616730Y-18656484D01*
X6616730Y-18656484D02*
X6654825Y-18656484D01*
X6654825Y-18656484D02*
X6673872Y-18646960D01*
X6673872Y-18646960D02*
X6683396Y-18627912D01*
X6683396Y-18627912D02*
X6683396Y-18618389D01*
X6683396Y-18618389D02*
X6673872Y-18599341D01*
X6673872Y-18599341D02*
X6654825Y-18589817D01*
X6654825Y-18589817D02*
X6626253Y-18589817D01*
X6626253Y-18589817D02*
X6607206Y-18580293D01*
X6607206Y-18580293D02*
X6597682Y-18561246D01*
X6597682Y-18561246D02*
X6597682Y-18551722D01*
X6597682Y-18551722D02*
X6607206Y-18532674D01*
X6607206Y-18532674D02*
X6626253Y-18523150D01*
X6626253Y-18523150D02*
X6654825Y-18523150D01*
X6654825Y-18523150D02*
X6673872Y-18532674D01*
X6750063Y-18732674D02*
X6759587Y-18723150D01*
X6759587Y-18723150D02*
X6778634Y-18694579D01*
X6778634Y-18694579D02*
X6788158Y-18675531D01*
X6788158Y-18675531D02*
X6797682Y-18646960D01*
X6797682Y-18646960D02*
X6807206Y-18599341D01*
X6807206Y-18599341D02*
X6807206Y-18561246D01*
X6807206Y-18561246D02*
X6797682Y-18513627D01*
X6797682Y-18513627D02*
X6788158Y-18485055D01*
X6788158Y-18485055D02*
X6778634Y-18466008D01*
X6778634Y-18466008D02*
X6759587Y-18437436D01*
X6759587Y-18437436D02*
X6750063Y-18427912D01*
D12*
X1975000Y-18829000D02*
G75*
G02*
X1875000Y-18829000I-50000J0D01*
G01*
X1875000Y-18829000D02*
G75*
G02*
X1975000Y-18829000I50000J0D01*
G01*
D11*
X2340539Y-18920484D02*
X2226253Y-18920484D01*
X2283396Y-18920484D02*
X2283396Y-18720484D01*
X2283396Y-18720484D02*
X2264348Y-18749055D01*
X2264348Y-18749055D02*
X2245301Y-18768103D01*
X2245301Y-18768103D02*
X2226253Y-18777627D01*
X2426253Y-18901436D02*
X2435777Y-18910960D01*
X2435777Y-18910960D02*
X2426253Y-18920484D01*
X2426253Y-18920484D02*
X2416729Y-18910960D01*
X2416729Y-18910960D02*
X2426253Y-18901436D01*
X2426253Y-18901436D02*
X2426253Y-18920484D01*
X2559586Y-18720484D02*
X2578634Y-18720484D01*
X2578634Y-18720484D02*
X2597682Y-18730008D01*
X2597682Y-18730008D02*
X2607205Y-18739531D01*
X2607205Y-18739531D02*
X2616729Y-18758579D01*
X2616729Y-18758579D02*
X2626253Y-18796674D01*
X2626253Y-18796674D02*
X2626253Y-18844293D01*
X2626253Y-18844293D02*
X2616729Y-18882389D01*
X2616729Y-18882389D02*
X2607205Y-18901436D01*
X2607205Y-18901436D02*
X2597682Y-18910960D01*
X2597682Y-18910960D02*
X2578634Y-18920484D01*
X2578634Y-18920484D02*
X2559586Y-18920484D01*
X2559586Y-18920484D02*
X2540539Y-18910960D01*
X2540539Y-18910960D02*
X2531015Y-18901436D01*
X2531015Y-18901436D02*
X2521491Y-18882389D01*
X2521491Y-18882389D02*
X2511967Y-18844293D01*
X2511967Y-18844293D02*
X2511967Y-18796674D01*
X2511967Y-18796674D02*
X2521491Y-18758579D01*
X2521491Y-18758579D02*
X2531015Y-18739531D01*
X2531015Y-18739531D02*
X2540539Y-18730008D01*
X2540539Y-18730008D02*
X2559586Y-18720484D01*
X2750063Y-18720484D02*
X2769110Y-18720484D01*
X2769110Y-18720484D02*
X2788158Y-18730008D01*
X2788158Y-18730008D02*
X2797682Y-18739531D01*
X2797682Y-18739531D02*
X2807205Y-18758579D01*
X2807205Y-18758579D02*
X2816729Y-18796674D01*
X2816729Y-18796674D02*
X2816729Y-18844293D01*
X2816729Y-18844293D02*
X2807205Y-18882389D01*
X2807205Y-18882389D02*
X2797682Y-18901436D01*
X2797682Y-18901436D02*
X2788158Y-18910960D01*
X2788158Y-18910960D02*
X2769110Y-18920484D01*
X2769110Y-18920484D02*
X2750063Y-18920484D01*
X2750063Y-18920484D02*
X2731015Y-18910960D01*
X2731015Y-18910960D02*
X2721491Y-18901436D01*
X2721491Y-18901436D02*
X2711967Y-18882389D01*
X2711967Y-18882389D02*
X2702444Y-18844293D01*
X2702444Y-18844293D02*
X2702444Y-18796674D01*
X2702444Y-18796674D02*
X2711967Y-18758579D01*
X2711967Y-18758579D02*
X2721491Y-18739531D01*
X2721491Y-18739531D02*
X2731015Y-18730008D01*
X2731015Y-18730008D02*
X2750063Y-18720484D01*
X2940539Y-18720484D02*
X2959586Y-18720484D01*
X2959586Y-18720484D02*
X2978634Y-18730008D01*
X2978634Y-18730008D02*
X2988158Y-18739531D01*
X2988158Y-18739531D02*
X2997682Y-18758579D01*
X2997682Y-18758579D02*
X3007205Y-18796674D01*
X3007205Y-18796674D02*
X3007205Y-18844293D01*
X3007205Y-18844293D02*
X2997682Y-18882389D01*
X2997682Y-18882389D02*
X2988158Y-18901436D01*
X2988158Y-18901436D02*
X2978634Y-18910960D01*
X2978634Y-18910960D02*
X2959586Y-18920484D01*
X2959586Y-18920484D02*
X2940539Y-18920484D01*
X2940539Y-18920484D02*
X2921491Y-18910960D01*
X2921491Y-18910960D02*
X2911967Y-18901436D01*
X2911967Y-18901436D02*
X2902443Y-18882389D01*
X2902443Y-18882389D02*
X2892920Y-18844293D01*
X2892920Y-18844293D02*
X2892920Y-18796674D01*
X2892920Y-18796674D02*
X2902443Y-18758579D01*
X2902443Y-18758579D02*
X2911967Y-18739531D01*
X2911967Y-18739531D02*
X2921491Y-18730008D01*
X2921491Y-18730008D02*
X2940539Y-18720484D01*
X3092920Y-18920484D02*
X3092920Y-18787150D01*
X3092920Y-18806198D02*
X3102443Y-18796674D01*
X3102443Y-18796674D02*
X3121491Y-18787150D01*
X3121491Y-18787150D02*
X3150063Y-18787150D01*
X3150063Y-18787150D02*
X3169110Y-18796674D01*
X3169110Y-18796674D02*
X3178634Y-18815722D01*
X3178634Y-18815722D02*
X3178634Y-18920484D01*
X3178634Y-18815722D02*
X3188158Y-18796674D01*
X3188158Y-18796674D02*
X3207205Y-18787150D01*
X3207205Y-18787150D02*
X3235777Y-18787150D01*
X3235777Y-18787150D02*
X3254824Y-18796674D01*
X3254824Y-18796674D02*
X3264348Y-18815722D01*
X3264348Y-18815722D02*
X3264348Y-18920484D01*
X3359586Y-18920484D02*
X3359586Y-18787150D01*
X3359586Y-18806198D02*
X3369110Y-18796674D01*
X3369110Y-18796674D02*
X3388158Y-18787150D01*
X3388158Y-18787150D02*
X3416729Y-18787150D01*
X3416729Y-18787150D02*
X3435777Y-18796674D01*
X3435777Y-18796674D02*
X3445301Y-18815722D01*
X3445301Y-18815722D02*
X3445301Y-18920484D01*
X3445301Y-18815722D02*
X3454824Y-18796674D01*
X3454824Y-18796674D02*
X3473872Y-18787150D01*
X3473872Y-18787150D02*
X3502443Y-18787150D01*
X3502443Y-18787150D02*
X3521491Y-18796674D01*
X3521491Y-18796674D02*
X3531015Y-18815722D01*
X3531015Y-18815722D02*
X3531015Y-18920484D01*
X3921491Y-18710960D02*
X3750063Y-18968103D01*
X4178634Y-18720484D02*
X4197682Y-18720484D01*
X4197682Y-18720484D02*
X4216729Y-18730008D01*
X4216729Y-18730008D02*
X4226253Y-18739531D01*
X4226253Y-18739531D02*
X4235777Y-18758579D01*
X4235777Y-18758579D02*
X4245301Y-18796674D01*
X4245301Y-18796674D02*
X4245301Y-18844293D01*
X4245301Y-18844293D02*
X4235777Y-18882389D01*
X4235777Y-18882389D02*
X4226253Y-18901436D01*
X4226253Y-18901436D02*
X4216729Y-18910960D01*
X4216729Y-18910960D02*
X4197682Y-18920484D01*
X4197682Y-18920484D02*
X4178634Y-18920484D01*
X4178634Y-18920484D02*
X4159586Y-18910960D01*
X4159586Y-18910960D02*
X4150063Y-18901436D01*
X4150063Y-18901436D02*
X4140539Y-18882389D01*
X4140539Y-18882389D02*
X4131015Y-18844293D01*
X4131015Y-18844293D02*
X4131015Y-18796674D01*
X4131015Y-18796674D02*
X4140539Y-18758579D01*
X4140539Y-18758579D02*
X4150063Y-18739531D01*
X4150063Y-18739531D02*
X4159586Y-18730008D01*
X4159586Y-18730008D02*
X4178634Y-18720484D01*
X4331015Y-18901436D02*
X4340539Y-18910960D01*
X4340539Y-18910960D02*
X4331015Y-18920484D01*
X4331015Y-18920484D02*
X4321491Y-18910960D01*
X4321491Y-18910960D02*
X4331015Y-18901436D01*
X4331015Y-18901436D02*
X4331015Y-18920484D01*
X4464348Y-18720484D02*
X4483396Y-18720484D01*
X4483396Y-18720484D02*
X4502444Y-18730008D01*
X4502444Y-18730008D02*
X4511968Y-18739531D01*
X4511968Y-18739531D02*
X4521491Y-18758579D01*
X4521491Y-18758579D02*
X4531015Y-18796674D01*
X4531015Y-18796674D02*
X4531015Y-18844293D01*
X4531015Y-18844293D02*
X4521491Y-18882389D01*
X4521491Y-18882389D02*
X4511968Y-18901436D01*
X4511968Y-18901436D02*
X4502444Y-18910960D01*
X4502444Y-18910960D02*
X4483396Y-18920484D01*
X4483396Y-18920484D02*
X4464348Y-18920484D01*
X4464348Y-18920484D02*
X4445301Y-18910960D01*
X4445301Y-18910960D02*
X4435777Y-18901436D01*
X4435777Y-18901436D02*
X4426253Y-18882389D01*
X4426253Y-18882389D02*
X4416729Y-18844293D01*
X4416729Y-18844293D02*
X4416729Y-18796674D01*
X4416729Y-18796674D02*
X4426253Y-18758579D01*
X4426253Y-18758579D02*
X4435777Y-18739531D01*
X4435777Y-18739531D02*
X4445301Y-18730008D01*
X4445301Y-18730008D02*
X4464348Y-18720484D01*
X4597682Y-18720484D02*
X4721491Y-18720484D01*
X4721491Y-18720484D02*
X4654825Y-18796674D01*
X4654825Y-18796674D02*
X4683396Y-18796674D01*
X4683396Y-18796674D02*
X4702444Y-18806198D01*
X4702444Y-18806198D02*
X4711968Y-18815722D01*
X4711968Y-18815722D02*
X4721491Y-18834770D01*
X4721491Y-18834770D02*
X4721491Y-18882389D01*
X4721491Y-18882389D02*
X4711968Y-18901436D01*
X4711968Y-18901436D02*
X4702444Y-18910960D01*
X4702444Y-18910960D02*
X4683396Y-18920484D01*
X4683396Y-18920484D02*
X4626253Y-18920484D01*
X4626253Y-18920484D02*
X4607206Y-18910960D01*
X4607206Y-18910960D02*
X4597682Y-18901436D01*
X4816729Y-18920484D02*
X4854825Y-18920484D01*
X4854825Y-18920484D02*
X4873872Y-18910960D01*
X4873872Y-18910960D02*
X4883396Y-18901436D01*
X4883396Y-18901436D02*
X4902444Y-18872865D01*
X4902444Y-18872865D02*
X4911968Y-18834770D01*
X4911968Y-18834770D02*
X4911968Y-18758579D01*
X4911968Y-18758579D02*
X4902444Y-18739531D01*
X4902444Y-18739531D02*
X4892920Y-18730008D01*
X4892920Y-18730008D02*
X4873872Y-18720484D01*
X4873872Y-18720484D02*
X4835777Y-18720484D01*
X4835777Y-18720484D02*
X4816729Y-18730008D01*
X4816729Y-18730008D02*
X4807206Y-18739531D01*
X4807206Y-18739531D02*
X4797682Y-18758579D01*
X4797682Y-18758579D02*
X4797682Y-18806198D01*
X4797682Y-18806198D02*
X4807206Y-18825246D01*
X4807206Y-18825246D02*
X4816729Y-18834770D01*
X4816729Y-18834770D02*
X4835777Y-18844293D01*
X4835777Y-18844293D02*
X4873872Y-18844293D01*
X4873872Y-18844293D02*
X4892920Y-18834770D01*
X4892920Y-18834770D02*
X4902444Y-18825246D01*
X4902444Y-18825246D02*
X4911968Y-18806198D01*
X5083396Y-18787150D02*
X5083396Y-18920484D01*
X5035777Y-18710960D02*
X4988158Y-18853817D01*
X4988158Y-18853817D02*
X5111968Y-18853817D01*
X5178634Y-18720484D02*
X5178634Y-18758579D01*
X5254825Y-18720484D02*
X5254825Y-18758579D01*
X5550063Y-18996674D02*
X5540539Y-18987150D01*
X5540539Y-18987150D02*
X5521491Y-18958579D01*
X5521491Y-18958579D02*
X5511968Y-18939531D01*
X5511968Y-18939531D02*
X5502444Y-18910960D01*
X5502444Y-18910960D02*
X5492920Y-18863341D01*
X5492920Y-18863341D02*
X5492920Y-18825246D01*
X5492920Y-18825246D02*
X5502444Y-18777627D01*
X5502444Y-18777627D02*
X5511968Y-18749055D01*
X5511968Y-18749055D02*
X5521491Y-18730008D01*
X5521491Y-18730008D02*
X5540539Y-18701436D01*
X5540539Y-18701436D02*
X5550063Y-18691912D01*
X5607206Y-18720484D02*
X5731015Y-18720484D01*
X5731015Y-18720484D02*
X5664348Y-18796674D01*
X5664348Y-18796674D02*
X5692920Y-18796674D01*
X5692920Y-18796674D02*
X5711968Y-18806198D01*
X5711968Y-18806198D02*
X5721491Y-18815722D01*
X5721491Y-18815722D02*
X5731015Y-18834770D01*
X5731015Y-18834770D02*
X5731015Y-18882389D01*
X5731015Y-18882389D02*
X5721491Y-18901436D01*
X5721491Y-18901436D02*
X5711968Y-18910960D01*
X5711968Y-18910960D02*
X5692920Y-18920484D01*
X5692920Y-18920484D02*
X5635777Y-18920484D01*
X5635777Y-18920484D02*
X5616729Y-18910960D01*
X5616729Y-18910960D02*
X5607206Y-18901436D01*
X5902444Y-18787150D02*
X5902444Y-18920484D01*
X5854825Y-18710960D02*
X5807206Y-18853817D01*
X5807206Y-18853817D02*
X5931015Y-18853817D01*
X6159587Y-18920484D02*
X6159587Y-18720484D01*
X6245301Y-18920484D02*
X6245301Y-18815722D01*
X6245301Y-18815722D02*
X6235777Y-18796674D01*
X6235777Y-18796674D02*
X6216730Y-18787150D01*
X6216730Y-18787150D02*
X6188158Y-18787150D01*
X6188158Y-18787150D02*
X6169110Y-18796674D01*
X6169110Y-18796674D02*
X6159587Y-18806198D01*
X6369110Y-18920484D02*
X6350063Y-18910960D01*
X6350063Y-18910960D02*
X6340539Y-18901436D01*
X6340539Y-18901436D02*
X6331015Y-18882389D01*
X6331015Y-18882389D02*
X6331015Y-18825246D01*
X6331015Y-18825246D02*
X6340539Y-18806198D01*
X6340539Y-18806198D02*
X6350063Y-18796674D01*
X6350063Y-18796674D02*
X6369110Y-18787150D01*
X6369110Y-18787150D02*
X6397682Y-18787150D01*
X6397682Y-18787150D02*
X6416730Y-18796674D01*
X6416730Y-18796674D02*
X6426253Y-18806198D01*
X6426253Y-18806198D02*
X6435777Y-18825246D01*
X6435777Y-18825246D02*
X6435777Y-18882389D01*
X6435777Y-18882389D02*
X6426253Y-18901436D01*
X6426253Y-18901436D02*
X6416730Y-18910960D01*
X6416730Y-18910960D02*
X6397682Y-18920484D01*
X6397682Y-18920484D02*
X6369110Y-18920484D01*
X6550063Y-18920484D02*
X6531015Y-18910960D01*
X6531015Y-18910960D02*
X6521491Y-18891912D01*
X6521491Y-18891912D02*
X6521491Y-18720484D01*
X6702444Y-18910960D02*
X6683396Y-18920484D01*
X6683396Y-18920484D02*
X6645301Y-18920484D01*
X6645301Y-18920484D02*
X6626253Y-18910960D01*
X6626253Y-18910960D02*
X6616730Y-18891912D01*
X6616730Y-18891912D02*
X6616730Y-18815722D01*
X6616730Y-18815722D02*
X6626253Y-18796674D01*
X6626253Y-18796674D02*
X6645301Y-18787150D01*
X6645301Y-18787150D02*
X6683396Y-18787150D01*
X6683396Y-18787150D02*
X6702444Y-18796674D01*
X6702444Y-18796674D02*
X6711968Y-18815722D01*
X6711968Y-18815722D02*
X6711968Y-18834770D01*
X6711968Y-18834770D02*
X6616730Y-18853817D01*
X6788158Y-18910960D02*
X6807206Y-18920484D01*
X6807206Y-18920484D02*
X6845301Y-18920484D01*
X6845301Y-18920484D02*
X6864349Y-18910960D01*
X6864349Y-18910960D02*
X6873872Y-18891912D01*
X6873872Y-18891912D02*
X6873872Y-18882389D01*
X6873872Y-18882389D02*
X6864349Y-18863341D01*
X6864349Y-18863341D02*
X6845301Y-18853817D01*
X6845301Y-18853817D02*
X6816730Y-18853817D01*
X6816730Y-18853817D02*
X6797682Y-18844293D01*
X6797682Y-18844293D02*
X6788158Y-18825246D01*
X6788158Y-18825246D02*
X6788158Y-18815722D01*
X6788158Y-18815722D02*
X6797682Y-18796674D01*
X6797682Y-18796674D02*
X6816730Y-18787150D01*
X6816730Y-18787150D02*
X6845301Y-18787150D01*
X6845301Y-18787150D02*
X6864349Y-18796674D01*
X6940539Y-18996674D02*
X6950063Y-18987150D01*
X6950063Y-18987150D02*
X6969111Y-18958579D01*
X6969111Y-18958579D02*
X6978634Y-18939531D01*
X6978634Y-18939531D02*
X6988158Y-18910960D01*
X6988158Y-18910960D02*
X6997682Y-18863341D01*
X6997682Y-18863341D02*
X6997682Y-18825246D01*
X6997682Y-18825246D02*
X6988158Y-18777627D01*
X6988158Y-18777627D02*
X6978634Y-18749055D01*
X6978634Y-18749055D02*
X6969111Y-18730008D01*
X6969111Y-18730008D02*
X6950063Y-18701436D01*
X6950063Y-18701436D02*
X6940539Y-18691912D01*
M02*
