%TF.GenerationSoftware,KiCad,Pcbnew,9.0.4*%
%TF.CreationDate,2025-10-09T09:00:04+01:00*%
%TF.ProjectId,OE PyBoard,4f452050-7942-46f6-9172-642e6b696361,rev?*%
%TF.SameCoordinates,Original*%
%TF.FileFunction,Plated,1,4,PTH,Mixed*%
%TF.FilePolarity,Positive*%
%FSLAX46Y46*%
G04 Gerber Fmt 4.6, Leading zero omitted, Abs format (unit mm)*
G04 Created by KiCad (PCBNEW 9.0.4) date 2025-10-09 09:00:04*
%MOMM*%
%LPD*%
G01*
G04 APERTURE LIST*
%TA.AperFunction,ViaDrill*%
%ADD10C,0.220000*%
%TD*%
G04 aperture for slot hole*
%TA.AperFunction,ComponentDrill*%
%ADD11C,0.600000*%
%TD*%
%TA.AperFunction,ComponentDrill*%
%ADD12C,1.000000*%
%TD*%
G04 APERTURE END LIST*
D10*
X129540000Y-104902000D03*
X129540000Y-112014000D03*
X129540000Y-117983000D03*
X129590800Y-97688400D03*
X129667000Y-102362000D03*
X129692400Y-134493000D03*
X129794000Y-125250000D03*
X130048000Y-114681000D03*
X130200400Y-132232400D03*
X130246000Y-128250000D03*
X131064000Y-95123000D03*
X131706510Y-121062966D03*
X131815548Y-124458000D03*
X132080000Y-100584000D03*
X132080000Y-107950000D03*
X132715000Y-113030000D03*
X132885431Y-121061573D03*
X134061200Y-96875600D03*
X134316000Y-120788666D03*
X134366000Y-121537000D03*
X134366000Y-123507000D03*
X134442200Y-133604000D03*
X134493000Y-125222000D03*
X134747000Y-100584000D03*
X134848600Y-127506000D03*
X134945832Y-108712000D03*
X134945832Y-118616000D03*
X135001000Y-119634000D03*
X135255000Y-107569000D03*
X135255000Y-116459000D03*
X135600000Y-104400000D03*
X135636000Y-101949106D03*
X135636000Y-114427000D03*
X135685803Y-102980065D03*
X136294720Y-112312720D03*
X136334500Y-115187000D03*
X136334500Y-117475000D03*
X136339022Y-101364106D03*
X137033000Y-128522000D03*
X137637104Y-125007000D03*
X137972800Y-125704600D03*
X138154063Y-123469592D03*
X138277600Y-110159800D03*
X138354428Y-124788025D03*
X138404600Y-131165600D03*
X138430000Y-107315000D03*
X138430000Y-119888000D03*
X138526000Y-119049000D03*
X139236000Y-117678200D03*
X139319000Y-134518400D03*
X139573000Y-123317000D03*
X139827000Y-103124000D03*
X139827000Y-105410000D03*
X139827000Y-108585000D03*
X139827000Y-121158000D03*
X140589000Y-126111000D03*
X140843000Y-107823000D03*
X141224000Y-111885000D03*
X141478000Y-96647000D03*
X141478000Y-98552000D03*
X141478000Y-120777000D03*
X141986000Y-129284000D03*
X142240000Y-115187000D03*
X142748000Y-125730000D03*
X143245446Y-107500000D03*
X143383000Y-123342400D03*
X143459200Y-98602800D03*
X143611600Y-112039400D03*
X143764000Y-115314000D03*
X143764000Y-118489000D03*
X144018000Y-114147600D03*
X144256583Y-95235447D03*
X144275617Y-119049000D03*
X144322000Y-105307337D03*
X144471660Y-111529424D03*
X144780000Y-108686600D03*
X144830800Y-110871000D03*
X145034000Y-120904000D03*
X145161000Y-132613400D03*
X145288000Y-124206000D03*
X145542000Y-105664000D03*
X145871000Y-120267000D03*
X145973800Y-103200200D03*
X146081750Y-121124250D03*
X146177000Y-118872000D03*
X146177000Y-122807000D03*
X146177000Y-124331000D03*
X146202400Y-109423200D03*
X146304000Y-125424534D03*
X146354800Y-108229400D03*
X146405600Y-110998000D03*
X146583400Y-130886200D03*
X146825000Y-133361000D03*
X146862800Y-128752600D03*
X147116800Y-104902000D03*
X147173400Y-130006015D03*
X147370800Y-134518400D03*
X147675600Y-103657400D03*
X147675600Y-129387600D03*
X147701000Y-127635000D03*
X148049066Y-98153134D03*
X148049066Y-99334043D03*
X148082000Y-107264200D03*
X148183600Y-117449600D03*
X148971000Y-128320000D03*
X148996000Y-100000000D03*
X149199600Y-95402400D03*
X149273885Y-120228716D03*
X149315961Y-119320493D03*
X149860000Y-114046000D03*
X149860000Y-125855000D03*
X149961600Y-102717600D03*
X150774681Y-122263533D03*
X151257000Y-131064000D03*
X151275000Y-126925000D03*
X151393912Y-104421942D03*
X151689988Y-118547201D03*
X151700000Y-115500000D03*
X151765000Y-124942600D03*
X151842000Y-120142000D03*
X152019000Y-126525000D03*
X152374600Y-102031800D03*
X152389999Y-121869757D03*
X152400000Y-102743000D03*
X152400000Y-114808000D03*
X153100000Y-118200000D03*
X153162000Y-112649000D03*
X153200000Y-126525000D03*
X153873200Y-107696000D03*
X154432000Y-119126000D03*
X154432000Y-134620000D03*
X154482800Y-123342400D03*
X154482800Y-125577600D03*
X154500000Y-127600000D03*
X154555563Y-106807000D03*
X154559000Y-117856000D03*
D11*
%TO.C,J3*%
X138174000Y-96531000D02*
X138174000Y-97331000D01*
X138174000Y-100561000D02*
X138174000Y-101661000D01*
X146814000Y-96531000D02*
X146814000Y-97331000D01*
X146814000Y-100561000D02*
X146814000Y-101661000D01*
D12*
%TO.C,J6*%
X128016000Y-96012000D03*
X128016000Y-98552000D03*
X128016000Y-101092000D03*
X128016000Y-103632000D03*
X128016000Y-106172000D03*
X128016000Y-108712000D03*
X128016000Y-111252000D03*
X128016000Y-113792000D03*
X128016000Y-116332000D03*
X128016000Y-118872000D03*
X128016000Y-121412000D03*
X128016000Y-123952000D03*
X128016000Y-126492000D03*
X128016000Y-129032000D03*
X128016000Y-131572000D03*
X128016000Y-134112000D03*
%TO.C,JP3*%
X150469600Y-110002400D03*
X150469600Y-112542400D03*
%TO.C,J7*%
X155956000Y-96012000D03*
X155956000Y-98552000D03*
X155956000Y-101092000D03*
X155956000Y-103632000D03*
X155956000Y-106172000D03*
X155956000Y-108712000D03*
X155956000Y-111252000D03*
X155956000Y-113792000D03*
X155956000Y-116332000D03*
X155956000Y-118872000D03*
X155956000Y-121412000D03*
X155956000Y-123952000D03*
X155956000Y-126492000D03*
X155956000Y-129032000D03*
X155956000Y-131572000D03*
X155956000Y-134112000D03*
M02*
